<svg width="16" height="16" viewBox="0 0 16 16" fill="none" xmlns="http://www.w3.org/2000/svg">
<path fill-rule="evenodd" clip-rule="evenodd" d="M7.99982 9.41403L13.6568 15.071C13.8454 15.2532 14.098 15.354 14.3602 15.3517C14.6224 15.3494 14.8732 15.2443 15.0586 15.0588C15.2441 14.8734 15.3492 14.6226 15.3515 14.3604C15.3538 14.0982 15.253 13.8456 15.0708 13.657L9.41382 8.00003L15.0708 2.34303C15.253 2.15443 15.3538 1.90182 15.3515 1.63963C15.3492 1.37743 15.2441 1.12662 15.0586 0.941209C14.8732 0.755801 14.6224 0.650632 14.3602 0.648353C14.098 0.646075 13.8454 0.746869 13.6568 0.929027L7.99982 6.58603L2.34282 0.929027C2.15337 0.751372 1.90224 0.654393 1.64255 0.65861C1.38287 0.662826 1.13502 0.767909 0.951433 0.951621C0.76785 1.13533 0.662943 1.38326 0.65891 1.64295C0.654877 1.90263 0.752034 2.1537 0.929823 2.34303L6.58582 8.00003L0.928823 13.657C0.833313 13.7493 0.757131 13.8596 0.704722 13.9816C0.652313 14.1036 0.624727 14.2348 0.623573 14.3676C0.622419 14.5004 0.647721 14.6321 0.698001 14.755C0.748282 14.8779 0.822535 14.9895 0.916428 15.0834C1.01032 15.1773 1.12197 15.2516 1.24487 15.3018C1.36777 15.3521 1.49944 15.3774 1.63222 15.3763C1.765 15.3751 1.89622 15.3475 2.01823 15.2951C2.14023 15.2427 2.25058 15.1665 2.34282 15.071L7.99982 9.41403Z" fill="#09244B"/>
</svg>
